<svg xmlns="http://www.w3.org/2000/svg" viewBox="0 0 272.58 272.9"><defs><style>.cls-1{fill:#eceff1;}</style></defs><title>home-bkg</title><g id="Layer_2" data-name="Layer 2"><g id="Design"><circle class="cls-1" cx="198.48" cy="129.69" r="1.62"/><circle class="cls-1" cx="198.02" cy="137.64" r="1.62"/><circle class="cls-1" cx="196.64" cy="145.47" r="2.74"/><circle class="cls-1" cx="194.36" cy="153.1" r="2.89"/><circle class="cls-1" cx="191.21" cy="160.41" r="1.86"/><circle class="cls-1" cx="187.23" cy="167.3" r="1.69"/><circle class="cls-1" cx="182.47" cy="173.68" r="1.69"/><circle class="cls-1" cx="177.01" cy="179.47" r="1.69"/><circle class="cls-1" cx="170.92" cy="184.59" r="1.69"/><circle class="cls-1" cx="164.27" cy="188.96" r="1.69"/><circle class="cls-1" cx="157.15" cy="192.53" r="1.71"/><circle class="cls-1" cx="149.68" cy="195.25" r="2.74"/><circle class="cls-1" cx="141.93" cy="197.09" r="2.74"/><circle class="cls-1" cx="134.03" cy="198.01" r="1.43"/><circle class="cls-1" cx="126.07" cy="198.01" r="2.74"/><circle class="cls-1" cx="118.16" cy="197.09" r="4.05"/><circle class="cls-1" cx="110.42" cy="195.25" r="3.94"/><circle class="cls-1" cx="102.94" cy="192.53" r="3.94"/><circle class="cls-1" cx="95.83" cy="188.96" r="3.94"/><circle class="cls-1" cx="89.18" cy="184.59" r="3.94"/><circle class="cls-1" cx="83.08" cy="179.47" r="3.12"/><circle class="cls-1" cx="77.62" cy="173.68" r="3.12"/><circle class="cls-1" cx="72.87" cy="167.3" r="3.12"/><circle class="cls-1" cx="68.89" cy="160.41" r="3.12"/><circle class="cls-1" cx="65.74" cy="153.1" r="3.27"/><circle class="cls-1" cx="63.46" cy="145.47" r="3.27"/><circle class="cls-1" cx="62.08" cy="137.64" r="3.5"/><circle class="cls-1" cx="61.61" cy="129.69" r="3.5"/><circle class="cls-1" cx="62.08" cy="121.75" r="3.5"/><circle class="cls-1" cx="63.46" cy="113.91" r="3.5"/><circle class="cls-1" cx="65.74" cy="106.29" r="3.5"/><circle class="cls-1" cx="68.89" cy="98.98" r="3.5"/><circle class="cls-1" cx="72.87" cy="92.09" r="3.88"/><circle class="cls-1" cx="77.62" cy="85.7" r="3.58"/><circle class="cls-1" cx="83.08" cy="79.91" r="3.27"/><circle class="cls-1" cx="89.18" cy="74.8" r="2.72"/><circle class="cls-1" cx="95.83" cy="70.42" r="2.72"/><circle class="cls-1" cx="102.94" cy="66.85" r="3.1"/><circle class="cls-1" cx="110.42" cy="64.13" r="3.1"/><circle class="cls-1" cx="118.16" cy="62.3" r="3.33"/><circle class="cls-1" cx="126.07" cy="61.37" r="3.33"/><circle class="cls-1" cx="134.03" cy="61.37" r="3.33"/><circle class="cls-1" cx="141.93" cy="62.3" r="3.33"/><circle class="cls-1" cx="149.68" cy="64.13" r="2.53"/><circle class="cls-1" cx="157.15" cy="66.85" r="2.19"/><circle class="cls-1" cx="164.27" cy="70.42" r="2.76"/><circle class="cls-1" cx="170.92" cy="74.8" r="2.19"/><circle class="cls-1" cx="177.01" cy="79.91" r="1.96"/><circle class="cls-1" cx="182.47" cy="85.7" r="1.96"/><circle class="cls-1" cx="187.23" cy="92.09" r="1.5"/><circle class="cls-1" cx="191.21" cy="98.98" r="1.5"/><circle class="cls-1" cx="194.36" cy="106.29" r="1.5"/><circle class="cls-1" cx="196.64" cy="113.91" r="1.62"/><circle class="cls-1" cx="198.02" cy="121.75" r="1.62"/><circle class="cls-1" cx="206.09" cy="129.69" r="1.81"/><circle class="cls-1" cx="205.67" cy="137.64" r="1.81"/><circle class="cls-1" cx="204.43" cy="145.5" r="2.89"/><circle class="cls-1" cx="202.37" cy="153.19" r="2.89"/><circle class="cls-1" cx="199.51" cy="160.62" r="3.14"/><circle class="cls-1" cx="195.9" cy="167.71" r="1.86"/><circle class="cls-1" cx="191.57" cy="174.39" r="1.86"/><circle class="cls-1" cx="186.56" cy="180.57" r="1.86"/><circle class="cls-1" cx="180.93" cy="186.2" r="1.86"/><circle class="cls-1" cx="174.74" cy="191.21" r="1.86"/><circle class="cls-1" cx="168.07" cy="195.54" r="1.86"/><circle class="cls-1" cx="160.98" cy="199.16" r="2.99"/><circle class="cls-1" cx="153.55" cy="202.01" r="1.43"/><circle class="cls-1" cx="145.86" cy="204.07" r="2.74"/><circle class="cls-1" cx="138" cy="205.32" r="1.14"/><circle class="cls-1" cx="130.05" cy="205.73" r="1.14"/><circle class="cls-1" cx="122.1" cy="205.32" r="1.14"/><circle class="cls-1" cx="114.24" cy="204.07" r="4.05"/><circle class="cls-1" cx="106.55" cy="202.01" r="2.83"/><circle class="cls-1" cx="99.12" cy="199.16" r="2.83"/><circle class="cls-1" cx="92.03" cy="195.54" r="3.94"/><circle class="cls-1" cx="85.35" cy="191.21" r="3.94"/><circle class="cls-1" cx="79.17" cy="186.2" r="3.94"/><circle class="cls-1" cx="73.54" cy="180.57" r="2.05"/><circle class="cls-1" cx="68.53" cy="174.39" r="2.05"/><circle class="cls-1" cx="64.2" cy="167.71" r="2.05"/><circle class="cls-1" cx="60.58" cy="160.62" r="2.04"/><circle class="cls-1" cx="57.73" cy="153.19" r="2.05"/><circle class="cls-1" cx="55.67" cy="145.5" r="2.05"/><circle class="cls-1" cx="54.42" cy="137.64" r="3.5"/><circle class="cls-1" cx="54.01" cy="129.69" r="3.5"/><circle class="cls-1" cx="54.42" cy="121.74" r="2.85"/><circle class="cls-1" cx="55.67" cy="113.88" r="2.85"/><circle class="cls-1" cx="57.73" cy="106.19" r="2.85"/><circle class="cls-1" cx="60.58" cy="98.76" r="2.85"/><circle class="cls-1" cx="64.2" cy="91.67" r="3.27"/><circle class="cls-1" cx="68.53" cy="85" r="3.27"/><circle class="cls-1" cx="73.54" cy="78.81" r="3.27"/><circle class="cls-1" cx="79.17" cy="73.18" r="3.27"/><circle class="cls-1" cx="85.35" cy="68.17" r="2.72"/><circle class="cls-1" cx="92.03" cy="63.84" r="3.1"/><circle class="cls-1" cx="99.12" cy="60.23" r="3.1"/><circle class="cls-1" cx="106.55" cy="57.37" r="3.1"/><circle class="cls-1" cx="114.24" cy="55.31" r="3.1"/><circle class="cls-1" cx="122.1" cy="54.07" r="2.74"/><circle class="cls-1" cx="130.05" cy="53.65" r="2.74"/><circle class="cls-1" cx="138" cy="54.07" r="2.74"/><circle class="cls-1" cx="145.86" cy="55.31" r="2.74"/><circle class="cls-1" cx="153.55" cy="57.37" r="1.94"/><circle class="cls-1" cx="160.98" cy="60.23" r="1.94"/><circle class="cls-1" cx="168.07" cy="63.84" r="1.94"/><circle class="cls-1" cx="174.74" cy="68.17" r="2.49"/><circle class="cls-1" cx="180.93" cy="73.18" r="2.49"/><circle class="cls-1" cx="186.56" cy="78.81" r="1.96"/><circle class="cls-1" cx="191.57" cy="85" r="1.96"/><circle class="cls-1" cx="195.9" cy="91.67" r="1.69"/><circle class="cls-1" cx="199.51" cy="98.76" r="1.69"/><circle class="cls-1" cx="202.37" cy="106.19" r="1.69"/><circle class="cls-1" cx="204.43" cy="113.88" r="1.62"/><circle class="cls-1" cx="205.67" cy="121.74" r="1.81"/><circle class="cls-1" cx="213.69" cy="129.69" r="1.43"/><circle class="cls-1" cx="213.31" cy="137.64" r="1.43"/><circle class="cls-1" cx="212.18" cy="145.52" r="1.69"/><circle class="cls-1" cx="210.3" cy="153.26" r="1.69"/><circle class="cls-1" cx="207.7" cy="160.78" r="2.4"/><circle class="cls-1" cx="204.39" cy="168.02" r="1.6"/><circle class="cls-1" cx="200.41" cy="174.91" r="1.6"/><circle class="cls-1" cx="195.8" cy="181.4" r="1.86"/><circle class="cls-1" cx="190.58" cy="187.41" r="1.6"/><circle class="cls-1" cx="184.82" cy="192.91" r="1.86"/><circle class="cls-1" cx="178.57" cy="197.83" r="1.86"/><circle class="cls-1" cx="171.87" cy="202.13" r="1.86"/><circle class="cls-1" cx="164.8" cy="205.78" r="1.43"/><circle class="cls-1" cx="157.41" cy="208.74" r="2.4"/><circle class="cls-1" cx="149.77" cy="210.98" r="2.4"/><circle class="cls-1" cx="141.95" cy="212.49" r="1.14"/><circle class="cls-1" cx="134.03" cy="213.24" r="1.14"/><circle class="cls-1" cx="126.07" cy="213.24" r="1.14"/><circle class="cls-1" cx="118.14" cy="212.49" r="1.75"/><circle class="cls-1" cx="110.33" cy="210.98" r="1.29"/><circle class="cls-1" cx="102.69" cy="208.74" r="1.29"/><circle class="cls-1" cx="95.3" cy="205.78" r="1.29"/><circle class="cls-1" cx="88.23" cy="202.13" r="2.47"/><circle class="cls-1" cx="81.53" cy="197.83" r="2.47"/><circle class="cls-1" cx="75.27" cy="192.91" r="1.31"/><circle class="cls-1" cx="69.51" cy="187.41" r="1.31"/><circle class="cls-1" cx="64.3" cy="181.4" r="1.43"/><circle class="cls-1" cx="59.68" cy="174.91" r="1.43"/><circle class="cls-1" cx="55.7" cy="168.02" r="1.43"/><circle class="cls-1" cx="52.4" cy="160.78" r="1.43"/><circle class="cls-1" cx="49.79" cy="153.26" r="1.43"/><circle class="cls-1" cx="47.92" cy="145.52" r="1.14"/><circle class="cls-1" cx="46.78" cy="137.64" r="2.89"/><circle class="cls-1" cx="46.4" cy="129.69" r="2.89"/><circle class="cls-1" cx="46.78" cy="121.74" r="2.21"/><circle class="cls-1" cx="47.92" cy="113.86" r="2.21"/><circle class="cls-1" cx="49.79" cy="106.13" r="2.21"/><circle class="cls-1" cx="52.4" cy="98.6" r="2.21"/><circle class="cls-1" cx="55.7" cy="91.36" r="1.75"/><circle class="cls-1" cx="59.68" cy="84.47" r="2.95"/><circle class="cls-1" cx="64.3" cy="77.99" r="3.27"/><circle class="cls-1" cx="69.51" cy="71.97" r="3.27"/><circle class="cls-1" cx="75.27" cy="66.48" r="2.76"/><circle class="cls-1" cx="81.53" cy="61.56" r="3.27"/><circle class="cls-1" cx="88.23" cy="57.25" r="2.76"/><circle class="cls-1" cx="95.3" cy="53.61" r="3.1"/><circle class="cls-1" cx="102.69" cy="50.65" r="2.76"/><circle class="cls-1" cx="110.33" cy="48.41" r="3.1"/><circle class="cls-1" cx="118.14" cy="46.9" r="3.1"/><circle class="cls-1" cx="126.07" cy="46.14" r="2.74"/><circle class="cls-1" cx="134.03" cy="46.14" r="2.74"/><circle class="cls-1" cx="141.95" cy="46.9" r="2.74"/><circle class="cls-1" cx="149.77" cy="48.41" r="2.74"/><circle class="cls-1" cx="157.41" cy="50.65" r="1.94"/><circle class="cls-1" cx="164.79" cy="53.61" r="1.94"/><circle class="cls-1" cx="171.87" cy="57.25" r="1.94"/><circle class="cls-1" cx="178.57" cy="61.56" r="1.94"/><circle class="cls-1" cx="184.82" cy="66.48" r="2.49"/><circle class="cls-1" cx="190.58" cy="71.97" r="2.49"/><circle class="cls-1" cx="195.8" cy="77.99" r="2.49"/><circle class="cls-1" cx="200.41" cy="84.47" r="2.21"/><circle class="cls-1" cx="204.39" cy="91.36" r="2.21"/><circle class="cls-1" cx="207.7" cy="98.6" r="2.21"/><circle class="cls-1" cx="210.3" cy="106.13" r="2.21"/><circle class="cls-1" cx="212.18" cy="113.86" r="1.81"/><circle class="cls-1" cx="213.31" cy="121.74" r="1.43"/><circle class="cls-1" cx="221.3" cy="129.69" r="1.43"/><circle class="cls-1" cx="220.95" cy="137.65" r="1.43"/><circle class="cls-1" cx="219.91" cy="145.54" r="1.29"/><circle class="cls-1" cx="218.19" cy="153.31" r="1.29"/><circle class="cls-1" cx="215.79" cy="160.9" r="1.29"/><circle class="cls-1" cx="212.75" cy="168.26" r="1.58"/><circle class="cls-1" cx="209.07" cy="175.32" r="1.12"/><circle class="cls-1" cx="204.79" cy="182.03" r="1.12"/><circle class="cls-1" cx="199.95" cy="188.35" r="1.12"/><circle class="cls-1" cx="194.57" cy="194.21" r="1.6"/><circle class="cls-1" cx="188.7" cy="199.59" r="1.6"/><circle class="cls-1" cx="182.39" cy="204.44" r="1.6"/><circle class="cls-1" cx="175.67" cy="208.72" r="1.31"/><circle class="cls-1" cx="168.61" cy="212.39" r="1.54"/><circle class="cls-1" cx="161.26" cy="215.44" r="1.45"/><circle class="cls-1" cx="153.67" cy="217.83" r="1.1"/><circle class="cls-1" cx="145.89" cy="219.55" r="2.4"/><circle class="cls-1" cx="138" cy="220.59" r="1.83"/><circle class="cls-1" cx="130.05" cy="220.94" r="1.48"/><circle class="cls-1" cx="122.1" cy="220.59" r="1.83"/><circle class="cls-1" cx="114.2" cy="219.55" r="1.75"/><circle class="cls-1" cx="106.43" cy="217.83" r="1.29"/><circle class="cls-1" cx="98.84" cy="215.44" r="1.29"/><circle class="cls-1" cx="91.49" cy="212.39" r="1.26"/><circle class="cls-1" cx="84.42" cy="208.72" r="1.29"/><circle class="cls-1" cx="77.71" cy="204.44" r="2.47"/><circle class="cls-1" cx="71.39" cy="199.59" r="2.32"/><circle class="cls-1" cx="65.53" cy="194.21" r="1.29"/><circle class="cls-1" cx="60.15" cy="188.35" r="1.35"/><circle class="cls-1" cx="55.3" cy="182.03" r="1.35"/><circle class="cls-1" cx="51.03" cy="175.32" r="1.22"/><circle class="cls-1" cx="47.35" cy="168.25" r="1.37"/><circle class="cls-1" cx="44.3" cy="160.9" r="1.22"/><circle class="cls-1" cx="41.91" cy="153.31" r="1.29"/><circle class="cls-1" cx="40.19" cy="145.54" r="1.05"/><circle class="cls-1" cx="39.15" cy="137.65" r="2.74"/><circle class="cls-1" cx="38.8" cy="129.69" r="2.76"/><circle class="cls-1" cx="39.15" cy="121.74" r="2.11"/><circle class="cls-1" cx="40.19" cy="113.85" r="2.07"/><circle class="cls-1" cx="41.91" cy="106.08" r="1.96"/><circle class="cls-1" cx="44.3" cy="98.48" r="1.83"/><circle class="cls-1" cx="47.35" cy="91.13" r="2.07"/><circle class="cls-1" cx="51.03" cy="84.07" r="2.49"/><circle class="cls-1" cx="55.3" cy="77.35" r="2.66"/><circle class="cls-1" cx="60.15" cy="71.04" r="2.34"/><circle class="cls-1" cx="65.53" cy="65.17" r="2.72"/><circle class="cls-1" cx="71.39" cy="59.79" r="2.66"/><circle class="cls-1" cx="77.71" cy="54.95" r="2.19"/><circle class="cls-1" cx="84.42" cy="50.67" r="2.34"/><circle class="cls-1" cx="91.48" cy="46.99" r="2.59"/><circle class="cls-1" cx="98.84" cy="43.95" r="2.45"/><circle class="cls-1" cx="106.43" cy="41.55" r="2.45"/><circle class="cls-1" cx="114.2" cy="39.83" r="2.61"/><circle class="cls-1" cx="122.1" cy="38.79" r="2.28"/><circle class="cls-1" cx="130.05" cy="38.44" r="2.72"/><circle class="cls-1" cx="138" cy="38.79" r="2.7"/><circle class="cls-1" cx="145.89" cy="39.83" r="2.64"/><circle class="cls-1" cx="153.67" cy="41.55" r="2.11"/><circle class="cls-1" cx="161.26" cy="43.95" r="0.82"/><circle class="cls-1" cx="168.61" cy="46.99" r="2.26"/><circle class="cls-1" cx="175.67" cy="50.67" r="2.76"/><circle class="cls-1" cx="182.39" cy="54.95" r="2.99"/><circle class="cls-1" cx="188.7" cy="59.79" r="2.99"/><circle class="cls-1" cx="194.57" cy="65.17" r="2.45"/><circle class="cls-1" cx="199.95" cy="71.04" r="3.18"/><circle class="cls-1" cx="204.79" cy="77.35" r="2.49"/><circle class="cls-1" cx="209.07" cy="84.07" r="3.27"/><circle class="cls-1" cx="212.75" cy="91.13" r="3.18"/><circle class="cls-1" cx="215.79" cy="98.48" r="3.27"/><circle class="cls-1" cx="218.19" cy="106.08" r="2.49"/><circle class="cls-1" cx="219.91" cy="113.85" r="1.43"/><circle class="cls-1" cx="220.95" cy="121.74" r="2.45"/><circle class="cls-1" cx="228.9" cy="129.69" r="1.41"/><circle class="cls-1" cx="228.58" cy="137.65" r="1.41"/><circle class="cls-1" cx="227.62" cy="145.55" r="1.27"/><circle class="cls-1" cx="226.03" cy="153.35" r="1.22"/><circle class="cls-1" cx="223.81" cy="161" r="1.16"/><circle class="cls-1" cx="220.99" cy="168.44" r="1.35"/><circle class="cls-1" cx="217.58" cy="175.63" r="1.03"/><circle class="cls-1" cx="213.6" cy="182.52" r="1.1"/><circle class="cls-1" cx="209.08" cy="189.08" r="1.1"/><circle class="cls-1" cx="204.04" cy="195.24" r="1.12"/><circle class="cls-1" cx="198.53" cy="200.98" r="0.99"/><circle class="cls-1" cx="192.57" cy="206.26" r="0.97"/><circle class="cls-1" cx="186.2" cy="211.05" r="1.1"/><circle class="cls-1" cx="179.47" cy="215.3" r="1.2"/><circle class="cls-1" cx="172.43" cy="219" r="1.54"/><circle class="cls-1" cx="165.1" cy="222.12" r="1.31"/><circle class="cls-1" cx="157.55" cy="224.64" r="1.37"/><circle class="cls-1" cx="149.82" cy="226.55" r="1.81"/><circle class="cls-1" cx="141.96" cy="227.82" r="1.5"/><circle class="cls-1" cx="134.03" cy="228.46" r="1.52"/><circle class="cls-1" cx="126.07" cy="228.46" r="1.5"/><circle class="cls-1" cx="118.13" cy="227.82" r="2.64"/><circle class="cls-1" cx="110.28" cy="226.55" r="3.18"/><circle class="cls-1" cx="102.55" cy="224.64" r="1.16"/><circle class="cls-1" cx="94.99" cy="222.12" r="1.1"/><circle class="cls-1" cx="87.67" cy="219" r="1.45"/><circle class="cls-1" cx="80.62" cy="215.3" r="1.08"/><circle class="cls-1" cx="73.89" cy="211.05" r="2.4"/><circle class="cls-1" cx="67.53" cy="206.26" r="2.26"/><circle class="cls-1" cx="61.57" cy="200.98" r="1.37"/><circle class="cls-1" cx="56.06" cy="195.24" r="1.43"/><circle class="cls-1" cx="51.02" cy="189.08" r="1.37"/><circle class="cls-1" cx="46.5" cy="182.52" r="1.37"/><circle class="cls-1" cx="42.52" cy="175.63" r="1.81"/><circle class="cls-1" cx="39.11" cy="168.44" r="1.37"/><circle class="cls-1" cx="36.28" cy="161" r="1.71"/><circle class="cls-1" cx="34.07" cy="153.35" r="1.81"/><circle class="cls-1" cx="32.48" cy="145.55" r="2.51"/><circle class="cls-1" cx="31.52" cy="137.65" r="1.54"/><circle class="cls-1" cx="31.2" cy="129.69" r="1.54"/><circle class="cls-1" cx="31.52" cy="121.74" r="1.54"/><circle class="cls-1" cx="32.48" cy="113.84" r="1.43"/><circle class="cls-1" cx="34.07" cy="106.04" r="1.37"/><circle class="cls-1" cx="36.28" cy="98.39" r="1.27"/><circle class="cls-1" cx="39.11" cy="90.95" r="1.45"/><circle class="cls-1" cx="42.52" cy="83.75" r="2.15"/><circle class="cls-1" cx="46.5" cy="76.86" r="1.94"/><circle class="cls-1" cx="51.02" cy="70.31" r="1.69"/><circle class="cls-1" cx="56.06" cy="64.14" r="1.75"/><circle class="cls-1" cx="61.57" cy="58.4" r="1.75"/><circle class="cls-1" cx="67.53" cy="53.12" r="1.75"/><circle class="cls-1" cx="73.89" cy="48.34" r="2.19"/><circle class="cls-1" cx="80.62" cy="44.08" r="1.77"/><circle class="cls-1" cx="87.67" cy="40.38" r="2"/><circle class="cls-1" cx="95" cy="37.26" r="1.75"/><circle class="cls-1" cx="102.55" cy="34.74" r="1.92"/><circle class="cls-1" cx="110.28" cy="32.84" r="2.07"/><circle class="cls-1" cx="118.13" cy="31.56" r="2.11"/><circle class="cls-1" cx="126.07" cy="30.92" r="2.15"/><circle class="cls-1" cx="134.03" cy="30.92" r="2.19"/><circle class="cls-1" cx="141.96" cy="31.56" r="2.15"/><circle class="cls-1" cx="149.82" cy="32.84" r="2.11"/><circle class="cls-1" cx="157.55" cy="34.74" r="0.72"/><circle class="cls-1" cx="165.1" cy="37.26" r="0.67"/><circle class="cls-1" cx="172.43" cy="40.38" r="2.66"/><circle class="cls-1" cx="179.47" cy="44.08" r="2.38"/><circle class="cls-1" cx="186.2" cy="48.34" r="2.66"/><circle class="cls-1" cx="192.57" cy="53.12" r="2.61"/><circle class="cls-1" cx="198.53" cy="58.4" r="2.83"/><circle class="cls-1" cx="204.04" cy="64.14" r="1.48"/><circle class="cls-1" cx="209.08" cy="70.31" r="1.48"/><circle class="cls-1" cx="213.6" cy="76.86" r="1.41"/><circle class="cls-1" cx="217.58" cy="83.75" r="2.89"/><circle class="cls-1" cx="220.99" cy="90.95" r="2.83"/><circle class="cls-1" cx="223.81" cy="98.39" r="3.06"/><circle class="cls-1" cx="226.03" cy="106.04" r="3.27"/><circle class="cls-1" cx="227.62" cy="113.84" r="2.36"/><circle class="cls-1" cx="228.58" cy="121.74" r="1.41"/><circle class="cls-1" cx="236.5" cy="129.69" r="1.12"/><circle class="cls-1" cx="236.21" cy="137.65" r="1.12"/><circle class="cls-1" cx="235.32" cy="145.56" r="1.37"/><circle class="cls-1" cx="233.84" cy="153.38" r="1.31"/><circle class="cls-1" cx="231.77" cy="161.07" r="2.13"/><circle class="cls-1" cx="229.15" cy="168.59" r="1.96"/><circle class="cls-1" cx="225.96" cy="175.88" r="1.39"/><circle class="cls-1" cx="222.24" cy="182.92" r="1.24"/><circle class="cls-1" cx="218.01" cy="189.66" r="1.35"/><circle class="cls-1" cx="213.28" cy="196.07" r="1.35"/><circle class="cls-1" cx="208.09" cy="202.1" r="1.01"/><circle class="cls-1" cx="202.46" cy="207.73" r="1.01"/><circle class="cls-1" cx="196.42" cy="212.92" r="0.97"/><circle class="cls-1" cx="190.02" cy="217.65" r="0.97"/><circle class="cls-1" cx="183.28" cy="221.89" r="2.36"/><circle class="cls-1" cx="176.24" cy="225.61" r="2.53"/><circle class="cls-1" cx="168.94" cy="228.79" r="1.01"/><circle class="cls-1" cx="161.43" cy="231.42" r="1.1"/><circle class="cls-1" cx="153.74" cy="233.48" r="1.14"/><circle class="cls-1" cx="145.91" cy="234.96" r="1.48"/><circle class="cls-1" cx="138" cy="235.85" r="1.22"/><circle class="cls-1" cx="130.05" cy="236.15" r="1.22"/><circle class="cls-1" cx="122.09" cy="235.85" r="1.2"/><circle class="cls-1" cx="114.18" cy="234.96" r="2.64"/><circle class="cls-1" cx="106.36" cy="233.48" r="2.51"/><circle class="cls-1" cx="98.67" cy="231.42" r="0.93"/><circle class="cls-1" cx="91.16" cy="228.79" r="0.93"/><circle class="cls-1" cx="83.86" cy="225.61" r="1.01"/><circle class="cls-1" cx="76.82" cy="221.89" r="0.93"/><circle class="cls-1" cx="70.08" cy="217.65" r="0.82"/><circle class="cls-1" cx="63.67" cy="212.92" r="0.74"/><circle class="cls-1" cx="57.64" cy="207.73" r="1.88"/><circle class="cls-1" cx="52.01" cy="202.1" r="1.5"/><circle class="cls-1" cx="46.82" cy="196.07" r="1.75"/><circle class="cls-1" cx="42.09" cy="189.66" r="1.41"/><circle class="cls-1" cx="37.86" cy="182.92" r="1.62"/><circle class="cls-1" cx="34.13" cy="175.88" r="1.46"/><circle class="cls-1" cx="30.95" cy="168.58" r="1.6"/><circle class="cls-1" cx="28.32" cy="161.07" r="1.35"/><circle class="cls-1" cx="26.26" cy="153.38" r="1.43"/><circle class="cls-1" cx="24.78" cy="145.56" r="1.64"/><circle class="cls-1" cx="23.89" cy="137.65" r="1.69"/><circle class="cls-1" cx="23.59" cy="129.69" r="1.71"/><circle class="cls-1" cx="23.89" cy="121.74" r="1.69"/><circle class="cls-1" cx="24.78" cy="113.83" r="1.58"/><circle class="cls-1" cx="26.26" cy="106" r="1.5"/><circle class="cls-1" cx="28.32" cy="98.31" r="1.29"/><circle class="cls-1" cx="30.95" cy="90.8" r="1.67"/><circle class="cls-1" cx="34.13" cy="83.5" r="1.5"/><circle class="cls-1" cx="37.85" cy="76.46" r="1.58"/><circle class="cls-1" cx="42.09" cy="69.72" r="1.22"/><circle class="cls-1" cx="46.82" cy="63.32" r="1.43"/><circle class="cls-1" cx="52.01" cy="57.28" r="1.1"/><circle class="cls-1" cx="57.64" cy="51.65" r="1.1"/><circle class="cls-1" cx="63.67" cy="46.46" r="1.83"/><circle class="cls-1" cx="70.08" cy="41.73" r="1.58"/><circle class="cls-1" cx="76.82" cy="37.5" r="1.77"/><circle class="cls-1" cx="83.86" cy="33.78" r="1.62"/><circle class="cls-1" cx="91.16" cy="30.59" r="1.75"/><circle class="cls-1" cx="98.67" cy="27.97" r="1.24"/><circle class="cls-1" cx="106.36" cy="25.9" r="1.54"/><circle class="cls-1" cx="114.18" cy="24.42" r="1.62"/><circle class="cls-1" cx="122.09" cy="23.53" r="1.67"/><circle class="cls-1" cx="130.05" cy="23.24" r="1.69"/><circle class="cls-1" cx="138" cy="23.53" r="1.69"/><circle class="cls-1" cx="145.91" cy="24.42" r="1.64"/><circle class="cls-1" cx="153.74" cy="25.91" r="1.88"/><circle class="cls-1" cx="161.43" cy="27.97" r="1.83"/><circle class="cls-1" cx="168.94" cy="30.59" r="2.13"/><circle class="cls-1" cx="176.24" cy="33.78" r="1.94"/><circle class="cls-1" cx="183.28" cy="37.5" r="2.11"/><circle class="cls-1" cx="190.02" cy="41.73" r="1.92"/><circle class="cls-1" cx="196.42" cy="46.46" r="2.32"/><circle class="cls-1" cx="202.46" cy="51.65" r="2.05"/><circle class="cls-1" cx="208.09" cy="57.28" r="2.32"/><circle class="cls-1" cx="213.28" cy="63.32" r="1.03"/><circle class="cls-1" cx="218.01" cy="69.72" r="1.22"/><circle class="cls-1" cx="222.24" cy="76.46" r="1.12"/><circle class="cls-1" cx="225.96" cy="83.5" r="1.29"/><circle class="cls-1" cx="229.15" cy="90.8" r="2.32"/><circle class="cls-1" cx="231.77" cy="98.31" r="2.32"/><circle class="cls-1" cx="233.84" cy="106" r="2.74"/><circle class="cls-1" cx="235.32" cy="113.83" r="2.89"/><circle class="cls-1" cx="236.21" cy="121.74" r="1.1"/><circle class="cls-1" cx="244.11" cy="129.69" r="1.71"/><circle class="cls-1" cx="243.83" cy="137.65" r="1.69"/><circle class="cls-1" cx="243" cy="145.57" r="1.08"/><circle class="cls-1" cx="241.62" cy="153.41" r="1.01"/><circle class="cls-1" cx="239.69" cy="161.13" r="1.01"/><circle class="cls-1" cx="237.23" cy="168.7" r="0.95"/><circle class="cls-1" cx="234.25" cy="176.08" r="1.48"/><circle class="cls-1" cx="230.76" cy="183.24" r="1.31"/><circle class="cls-1" cx="226.78" cy="190.14" r="1.43"/><circle class="cls-1" cx="222.32" cy="196.74" r="1.43"/><circle class="cls-1" cx="217.42" cy="203.01" r="0.44"/><circle class="cls-1" cx="212.1" cy="208.93" r="0.44"/><circle class="cls-1" cx="206.37" cy="214.46" r="0.38"/><circle class="cls-1" cx="200.27" cy="219.57" r="2.15"/><circle class="cls-1" cx="193.83" cy="224.25" r="2"/><circle class="cls-1" cx="187.08" cy="228.47" r="1.79"/><circle class="cls-1" cx="180.05" cy="232.21" r="2.07"/><circle class="cls-1" cx="172.78" cy="235.45" r="2.32"/><circle class="cls-1" cx="165.29" cy="238.17" r="1.75"/><circle class="cls-1" cx="157.64" cy="240.36" r="0.93"/><circle class="cls-1" cx="149.85" cy="242.02" r="1.2"/><circle class="cls-1" cx="141.97" cy="243.13" r="1.67"/><circle class="cls-1" cx="134.03" cy="243.68" r="1.88"/><circle class="cls-1" cx="126.07" cy="243.68" r="0.99"/><circle class="cls-1" cx="118.13" cy="243.13" r="0.97"/><circle class="cls-1" cx="110.24" cy="242.02" r="1.16"/><circle class="cls-1" cx="102.45" cy="240.36" r="0.8"/><circle class="cls-1" cx="94.8" cy="238.17" r="0.76"/><circle class="cls-1" cx="87.32" cy="235.45" r="0.95"/><circle class="cls-1" cx="80.05" cy="232.21" r="0.76"/><circle class="cls-1" cx="73.02" cy="228.47" r="0.67"/><circle class="cls-1" cx="66.27" cy="224.25" r="0.63"/><circle class="cls-1" cx="59.83" cy="219.57" r="1.5"/><circle class="cls-1" cx="53.73" cy="214.46" r="1.5"/><circle class="cls-1" cx="48" cy="208.92" r="1.27"/><circle class="cls-1" cx="42.67" cy="203.01" r="1.22"/><circle class="cls-1" cx="37.77" cy="196.74" r="1.12"/><circle class="cls-1" cx="33.32" cy="190.14" r="1.12"/><circle class="cls-1" cx="29.34" cy="183.24" r="1.03"/><circle class="cls-1" cx="25.85" cy="176.09" r="1.14"/><circle class="cls-1" cx="22.87" cy="168.7" r="1.24"/><circle class="cls-1" cx="20.41" cy="161.13" r="1.05"/><circle class="cls-1" cx="18.48" cy="153.41" r="1.12"/><circle class="cls-1" cx="17.1" cy="145.57" r="1.24"/><circle class="cls-1" cx="16.27" cy="137.65" r="1.27"/><circle class="cls-1" cx="15.99" cy="129.69" r="1.29"/><circle class="cls-1" cx="16.27" cy="121.74" r="1.27"/><circle class="cls-1" cx="17.1" cy="113.82" r="1.2"/><circle class="cls-1" cx="18.48" cy="105.98" r="1.14"/><circle class="cls-1" cx="20.41" cy="98.25" r="1.03"/><circle class="cls-1" cx="22.87" cy="90.68" r="1.16"/><circle class="cls-1" cx="25.85" cy="83.3" r="1.16"/><circle class="cls-1" cx="29.34" cy="76.14" r="1.05"/><circle class="cls-1" cx="33.32" cy="69.25" r="0.99"/><circle class="cls-1" cx="37.77" cy="62.65" r="0.89"/><circle class="cls-1" cx="42.67" cy="56.38" r="0.93"/><circle class="cls-1" cx="48" cy="50.46" r="0.93"/><circle class="cls-1" cx="53.73" cy="44.93" r="0.93"/><circle class="cls-1" cx="59.83" cy="39.81" r="0.93"/><circle class="cls-1" cx="66.27" cy="35.13" r="1.1"/><circle class="cls-1" cx="73.02" cy="30.91" r="1.12"/><circle class="cls-1" cx="80.05" cy="27.18" r="1.48"/><circle class="cls-1" cx="87.32" cy="23.94" r="1.12"/><circle class="cls-1" cx="94.8" cy="21.21" r="1.01"/><circle class="cls-1" cx="102.46" cy="19.02" r="1.05"/><circle class="cls-1" cx="110.24" cy="17.36" r="1.14"/><circle class="cls-1" cx="118.13" cy="16.26" r="1.2"/><circle class="cls-1" cx="126.07" cy="15.7" r="1.24"/><circle class="cls-1" cx="134.03" cy="15.7" r="1.24"/><circle class="cls-1" cx="141.97" cy="16.26" r="1.24"/><circle class="cls-1" cx="149.85" cy="17.36" r="1.2"/><circle class="cls-1" cx="157.64" cy="19.02" r="1.52"/><circle class="cls-1" cx="165.29" cy="21.21" r="1.43"/><circle class="cls-1" cx="172.78" cy="23.94" r="1.79"/><circle class="cls-1" cx="180.05" cy="27.18" r="1.5"/><circle class="cls-1" cx="187.08" cy="30.91" r="1.75"/><circle class="cls-1" cx="193.83" cy="35.13" r="1.5"/><circle class="cls-1" cx="200.27" cy="39.81" r="1.64"/><circle class="cls-1" cx="206.37" cy="44.93" r="1.37"/><circle class="cls-1" cx="212.1" cy="50.46" r="1.71"/><circle class="cls-1" cx="217.42" cy="56.38" r="1.88"/><circle class="cls-1" cx="222.33" cy="62.65" r="1.81"/><circle class="cls-1" cx="226.78" cy="69.25" r="2.13"/><circle class="cls-1" cx="230.76" cy="76.14" r="1.98"/><circle class="cls-1" cx="234.25" cy="83.3" r="2.07"/><circle class="cls-1" cx="237.23" cy="90.68" r="1.62"/><circle class="cls-1" cx="239.69" cy="98.25" r="1.77"/><circle class="cls-1" cx="241.62" cy="105.98" r="2.09"/><circle class="cls-1" cx="243" cy="113.82" r="2.21"/><circle class="cls-1" cx="243.83" cy="121.74" r="1.69"/><circle class="cls-1" cx="251.71" cy="129.69" r="1.29"/><circle class="cls-1" cx="251.45" cy="137.65" r="1.29"/><circle class="cls-1" cx="250.67" cy="145.57" r="1.64"/><circle class="cls-1" cx="249.38" cy="153.43" r="1.58"/><circle class="cls-1" cx="247.57" cy="161.18" r="1.24"/><circle class="cls-1" cx="245.26" cy="168.8" r="1.14"/><circle class="cls-1" cx="242.45" cy="176.25" r="1.16"/><circle class="cls-1" cx="239.17" cy="183.5" r="1.05"/><circle class="cls-1" cx="235.41" cy="190.52" r="1.14"/><circle class="cls-1" cx="231.21" cy="197.28" r="1.01"/><circle class="cls-1" cx="226.57" cy="203.76" r="1.22"/><circle class="cls-1" cx="221.52" cy="209.91" r="1.05"/><circle class="cls-1" cx="216.08" cy="215.72" r="1.08"/><circle class="cls-1" cx="210.27" cy="221.16" r="1.05"/><circle class="cls-1" cx="204.11" cy="226.22" r="1.26"/><circle class="cls-1" cx="197.64" cy="230.85" r="1.03"/><circle class="cls-1" cx="190.88" cy="235.06" r="1.18"/><circle class="cls-1" cx="183.86" cy="238.81" r="1.05"/><circle class="cls-1" cx="176.61" cy="242.1" r="1.54"/><circle class="cls-1" cx="169.16" cy="244.9" r="1.2"/><circle class="cls-1" cx="161.54" cy="247.21" r="0.02"/><circle class="cls-1" cx="153.78" cy="249.02" r="0.02"/><circle class="cls-1" cx="145.93" cy="250.32" r="0.02"/><circle class="cls-1" cx="138.01" cy="251.1" r="1.12"/><circle class="cls-1" cx="130.05" cy="251.36" r="1.71"/><circle class="cls-1" cx="122.09" cy="251.1" r="1.69"/><circle class="cls-1" cx="114.17" cy="250.32" r="0.97"/><circle class="cls-1" cx="106.31" cy="249.02" r="0.93"/><circle class="cls-1" cx="98.56" cy="247.21" r="0.84"/><circle class="cls-1" cx="90.94" cy="244.9" r="0.78"/><circle class="cls-1" cx="83.49" cy="242.1" r="0.95"/><circle class="cls-1" cx="76.24" cy="238.81" r="0.32"/><circle class="cls-1" cx="69.22" cy="235.06" r="0.67"/><circle class="cls-1" cx="62.45" cy="230.85" r="1.79"/><circle class="cls-1" cx="55.98" cy="226.22" r="0.84"/><circle class="cls-1" cx="49.83" cy="221.16" r="0.8"/><circle class="cls-1" cx="44.02" cy="215.72" r="0.78"/><circle class="cls-1" cx="38.58" cy="209.91" r="1.05"/><circle class="cls-1" cx="33.53" cy="203.76" r="1.01"/><circle class="cls-1" cx="28.89" cy="197.28" r="0.61"/><circle class="cls-1" cx="24.68" cy="190.52" r="0.93"/><circle class="cls-1" cx="20.93" cy="183.5" r="0.63"/><circle class="cls-1" cx="17.65" cy="176.25" r="0.91"/><circle class="cls-1" cx="14.84" cy="168.8" r="0.99"/><circle class="cls-1" cx="12.53" cy="161.18" r="0.44"/><circle class="cls-1" cx="10.72" cy="153.43" r="0.49"/><circle class="cls-1" cx="9.42" cy="145.57" r="0.97"/><circle class="cls-1" cx="8.64" cy="137.65" r="1.01"/><circle class="cls-1" cx="8.38" cy="129.69" r="1.01"/><circle class="cls-1" cx="8.64" cy="121.73" r="0.99"/><circle class="cls-1" cx="9.42" cy="113.81" r="0.93"/><circle class="cls-1" cx="10.72" cy="105.96" r="0.82"/><circle class="cls-1" cx="12.53" cy="98.2" r="0.59"/><circle class="cls-1" cx="14.84" cy="90.58" r="0.53"/><circle class="cls-1" cx="17.65" cy="83.13" r="0.89"/><circle class="cls-1" cx="20.93" cy="75.88" r="0.67"/><circle class="cls-1" cx="24.68" cy="68.86" r="0.8"/><circle class="cls-1" cx="28.89" cy="62.1" r="0.57"/><circle class="cls-1" cx="33.53" cy="55.63" r="0.67"/><circle class="cls-1" cx="38.58" cy="49.47" r="0.72"/><circle class="cls-1" cx="44.02" cy="43.66" r="0.49"/><circle class="cls-1" cx="49.83" cy="38.22" r="0.72"/><circle class="cls-1" cx="55.98" cy="33.17" r="0.82"/><circle class="cls-1" cx="62.46" cy="28.53" r="0.7"/><circle class="cls-1" cx="69.22" cy="24.33" r="0.89"/><circle class="cls-1" cx="76.24" cy="20.57" r="0.99"/><circle class="cls-1" cx="83.49" cy="17.29" r="0.89"/><circle class="cls-1" cx="90.94" cy="14.48" r="0.46"/><circle class="cls-1" cx="98.56" cy="12.17" r="0.63"/><circle class="cls-1" cx="106.31" cy="10.37" r="0.84"/><circle class="cls-1" cx="114.17" cy="9.07" r="0.93"/><circle class="cls-1" cx="122.09" cy="8.29" r="0.99"/><circle class="cls-1" cx="130.05" cy="8.03" r="0.99"/><circle class="cls-1" cx="138" cy="8.29" r="0.99"/><circle class="cls-1" cx="145.93" cy="9.07" r="0.95"/><circle class="cls-1" cx="153.78" cy="10.37" r="1.08"/><circle class="cls-1" cx="161.54" cy="12.17" r="0.95"/><circle class="cls-1" cx="169.16" cy="14.48" r="0.86"/><circle class="cls-1" cx="176.61" cy="17.29" r="1.18"/><circle class="cls-1" cx="183.86" cy="20.57" r="1.03"/><circle class="cls-1" cx="190.88" cy="24.33" r="1.16"/><circle class="cls-1" cx="197.64" cy="28.53" r="0.97"/><circle class="cls-1" cx="204.11" cy="33.17" r="1.27"/><circle class="cls-1" cx="210.27" cy="38.22" r="1.37"/><circle class="cls-1" cx="216.08" cy="43.66" r="1.18"/><circle class="cls-1" cx="221.52" cy="49.47" r="1.2"/><circle class="cls-1" cx="226.57" cy="55.63" r="1.5"/><circle class="cls-1" cx="231.21" cy="62.1" r="1.41"/><circle class="cls-1" cx="235.41" cy="68.86" r="1.67"/><circle class="cls-1" cx="239.17" cy="75.88" r="1.41"/><circle class="cls-1" cx="242.45" cy="83.13" r="1.62"/><circle class="cls-1" cx="245.26" cy="90.58" r="1.22"/><circle class="cls-1" cx="247.57" cy="98.2" r="1.35"/><circle class="cls-1" cx="249.37" cy="105.96" r="1.62"/><circle class="cls-1" cx="250.67" cy="113.81" r="1.71"/><circle class="cls-1" cx="251.45" cy="121.73" r="1.26"/><circle class="cls-1" cx="259.32" cy="129.69" r="0.97"/><circle class="cls-1" cx="259.07" cy="137.65" r="0.95"/><circle class="cls-1" cx="258.34" cy="145.58" r="1.24"/><circle class="cls-1" cx="257.12" cy="153.44" r="1.2"/><circle class="cls-1" cx="255.41" cy="161.22" r="1.43"/><circle class="cls-1" cx="253.23" cy="168.88" r="1.18"/><circle class="cls-1" cx="250.59" cy="176.39" r="1.01"/><circle class="cls-1" cx="247.48" cy="183.72" r="1.39"/><circle class="cls-1" cx="243.94" cy="190.85" r="1.01"/><circle class="cls-1" cx="239.95" cy="197.74" r="1.29"/><circle class="cls-1" cx="235.56" cy="204.38" r="1.29"/><circle class="cls-1" cx="230.76" cy="210.73" r="1.16"/><circle class="cls-1" cx="225.58" cy="216.78" r="0.93"/><circle class="cls-1" cx="220.04" cy="222.5" r="0.93"/><circle class="cls-1" cx="214.15" cy="227.86" r="0.97"/><circle class="cls-1" cx="207.95" cy="232.85" r="0.89"/><circle class="cls-1" cx="201.45" cy="237.45" r="0.76"/><circle class="cls-1" cx="194.68" cy="241.64" r="0.95"/><circle class="cls-1" cx="187.67" cy="245.41" r="0.8"/><circle class="cls-1" cx="180.44" cy="248.74" r="1.1"/><circle class="cls-1" cx="173.01" cy="251.61" r="0.82"/><circle class="cls-1" cx="165.42" cy="254.03" r="0.95"/><circle class="cls-1" cx="157.7" cy="255.97" r="0.02"/><circle class="cls-1" cx="149.88" cy="257.43" r="0.02"/><circle class="cls-1" cx="141.98" cy="258.41" r="0.65"/><circle class="cls-1" cx="134.03" cy="258.9" r="0.97"/><circle class="cls-1" cx="126.07" cy="258.9" r="0.95"/><circle class="cls-1" cx="118.12" cy="258.41" r="0.86"/><circle class="cls-1" cx="110.22" cy="257.43" r="0.04"/><circle class="cls-1" cx="102.39" cy="255.97" r="0.04"/><circle class="cls-1" cx="94.67" cy="254.03" r="0.04"/><circle class="cls-1" cx="87.09" cy="251.61" r="0.02"/><circle class="cls-1" cx="65.41" cy="241.64" r="1.18"/><circle class="cls-1" cx="58.65" cy="237.45" r="0.72"/><circle class="cls-1" cx="52.15" cy="232.85" r="0.86"/><circle class="cls-1" cx="45.94" cy="227.86" r="0.86"/><circle class="cls-1" cx="40.06" cy="222.5" r="0.48"/><circle class="cls-1" cx="34.52" cy="216.78" r="0.46"/><circle class="cls-1" cx="29.34" cy="210.73" r="0.67"/><circle class="cls-1" cx="24.54" cy="204.38" r="0.61"/><circle class="cls-1" cx="20.14" cy="197.74" r="0.46"/><circle class="cls-1" cx="16.16" cy="190.85" r="0.46"/><circle class="cls-1" cx="12.61" cy="183.72" r="0.46"/><circle class="cls-1" cx="9.51" cy="176.39" r="0.74"/><circle class="cls-1" cx="6.86" cy="168.88" r="0.23"/><circle class="cls-1" cx="4.68" cy="161.22" r="0.44"/><circle class="cls-1" cx="2.98" cy="153.44" r="0.57"/><circle class="cls-1" cx="1.76" cy="145.58" r="0.7"/><circle class="cls-1" cx="1.03" cy="137.65" r="0.76"/><circle class="cls-1" cx="0.78" cy="129.69" r="0.78"/><circle class="cls-1" cx="1.03" cy="121.73" r="0.74"/><circle class="cls-1" cx="1.76" cy="113.81" r="0.67"/><circle class="cls-1" cx="2.98" cy="105.94" r="0.53"/><circle class="cls-1" cx="4.68" cy="98.16" r="0.17"/><circle class="cls-1" cx="9.51" cy="82.99" r="0.38"/><circle class="cls-1" cx="12.61" cy="75.66" r="0.38"/><circle class="cls-1" cx="16.16" cy="68.54" r="0.57"/><circle class="cls-1" cx="20.14" cy="61.64" r="0.36"/><circle class="cls-1" cx="24.54" cy="55" r="0.55"/><circle class="cls-1" cx="29.34" cy="48.65" r="0.11"/><circle class="cls-1" cx="34.52" cy="42.6" r="0.17"/><circle class="cls-1" cx="40.06" cy="36.89" r="0.17"/><circle class="cls-1" cx="45.94" cy="31.52" r="0.46"/><circle class="cls-1" cx="52.15" cy="26.53" r="0.11"/><circle class="cls-1" cx="65.41" cy="17.74" r="0.32"/><circle class="cls-1" cx="72.43" cy="13.98" r="0.06"/><circle class="cls-1" cx="79.66" cy="10.65" r="0.36"/><circle class="cls-1" cx="87.09" cy="7.77" r="0.46"/><circle class="cls-1" cx="94.67" cy="5.36" r="0.17"/><circle class="cls-1" cx="102.39" cy="3.42" r="0.36"/><circle class="cls-1" cx="110.22" cy="1.95" r="0.36"/><circle class="cls-1" cx="118.12" cy="0.98" r="0.44"/><circle class="cls-1" cx="126.07" cy="0.49" r="0.46"/><circle class="cls-1" cx="134.03" cy="0.49" r="0.48"/><circle class="cls-1" cx="141.98" cy="0.98" r="0.46"/><circle class="cls-1" cx="149.88" cy="1.95" r="0.44"/><circle class="cls-1" cx="157.7" cy="3.42" r="0.51"/><circle class="cls-1" cx="165.42" cy="5.36" r="0.38"/><circle class="cls-1" cx="173.01" cy="7.77" r="0.86"/><circle class="cls-1" cx="180.44" cy="10.65" r="0.63"/><circle class="cls-1" cx="187.67" cy="13.98" r="0.4"/><circle class="cls-1" cx="194.68" cy="17.74" r="0.72"/><circle class="cls-1" cx="201.45" cy="21.93" r="0.4"/><circle class="cls-1" cx="207.95" cy="26.53" r="0.59"/><circle class="cls-1" cx="214.15" cy="31.52" r="0.72"/><circle class="cls-1" cx="220.04" cy="36.89" r="0.72"/><circle class="cls-1" cx="225.58" cy="42.6" r="0.89"/><circle class="cls-1" cx="230.76" cy="48.65" r="0.86"/><circle class="cls-1" cx="235.56" cy="55" r="0.72"/><circle class="cls-1" cx="239.95" cy="61.64" r="1.18"/><circle class="cls-1" cx="243.94" cy="68.54" r="0.91"/><circle class="cls-1" cx="247.48" cy="75.66" r="0.97"/><circle class="cls-1" cx="250.59" cy="83" r="0.97"/><circle class="cls-1" cx="253.23" cy="90.5" r="0.86"/><circle class="cls-1" cx="255.41" cy="98.16" r="1.12"/><circle class="cls-1" cx="257.12" cy="105.94" r="1.18"/><circle class="cls-1" cx="258.34" cy="113.81" r="1.24"/><circle class="cls-1" cx="259.07" cy="121.73" r="0.95"/><circle class="cls-1" cx="266.92" cy="129.69" r="0.17"/><circle class="cls-1" cx="266.69" cy="137.65" r="0.17"/><circle class="cls-1" cx="266" cy="145.58" r="0.11"/><circle class="cls-1" cx="264.84" cy="153.46" r="0.78"/><circle class="cls-1" cx="263.23" cy="161.26" r="0.61"/><circle class="cls-1" cx="261.17" cy="168.95" r="0.42"/><circle class="cls-1" cx="258.67" cy="176.5" r="0.19"/><circle class="cls-1" cx="255.73" cy="183.91" r="0.61"/><circle class="cls-1" cx="252.36" cy="191.12" r="0.32"/><circle class="cls-1" cx="248.58" cy="198.13" r="0.61"/><circle class="cls-1" cx="244.4" cy="204.91" r="0.21"/><circle class="cls-1" cx="239.84" cy="211.43" r="0.84"/><circle class="cls-1" cx="234.9" cy="217.67" r="0.97"/><circle class="cls-1" cx="229.61" cy="223.62" r="0.46"/><circle class="cls-1" cx="223.98" cy="229.25" r="0.46"/><circle class="cls-1" cx="218.03" cy="234.54" r="0.97"/><circle class="cls-1" cx="211.78" cy="239.48" r="0.84"/><circle class="cls-1" cx="205.26" cy="244.05" r="0.21"/><circle class="cls-1" cx="198.48" cy="248.23" r="0.61"/><circle class="cls-1" cx="191.48" cy="252.01" r="0.32"/><circle class="cls-1" cx="184.26" cy="255.37" r="0.61"/><circle class="cls-1" cx="176.86" cy="258.31" r="0.19"/><circle class="cls-1" cx="169.3" cy="260.81" r="0.42"/><circle class="cls-1" cx="161.61" cy="262.88" r="0.61"/><circle class="cls-1" cx="153.82" cy="264.49" r="0.53"/><circle class="cls-1" cx="145.94" cy="265.64" r="0.11"/><circle class="cls-1" cx="138.01" cy="266.33" r="0.17"/><circle class="cls-1" cx="130.05" cy="266.56" r="0.17"/><circle class="cls-1" cx="122.09" cy="266.33" r="0.15"/><circle class="cls-1" cx="114.16" cy="265.64" r="0.11"/><circle class="cls-1" cx="106.28" cy="264.49" r="0.02"/><circle class="cls-1" cx="98.48" cy="262.88" r="0.02"/><circle class="cls-1" cx="90.79" cy="260.81" r="0.15"/><circle class="cls-1" cx="75.84" cy="255.37" r="0.21"/><circle class="cls-1" cx="68.62" cy="252.01" r="0.21"/><circle class="cls-1" cx="61.61" cy="248.23" r="0.51"/><circle class="cls-1" cx="54.84" cy="244.05" r="0.11"/><circle class="cls-1" cx="48.31" cy="239.48" r="0.25"/><circle class="cls-1" cx="42.07" cy="234.54" r="0.34"/><circle class="cls-1" cx="30.49" cy="223.62" r="0.32"/><circle class="cls-1" cx="25.2" cy="217.67" r="0.21"/><circle class="cls-1" cx="20.26" cy="211.43" r="0.04"/><circle class="cls-1" cx="15.69" cy="204.9" r="0.04"/><circle class="cls-1" cx="7.74" cy="191.12" r="0.15"/><circle class="cls-1" cx="1.43" cy="176.5" r="0.02"/><circle class="cls-1" cx="7.73" cy="68.26" r="0.06"/><circle class="cls-1" cx="68.62" cy="7.38" r="0.06"/><circle class="cls-1" cx="176.86" cy="1.07" r="0.02"/><circle class="cls-1" cx="191.48" cy="7.38" r="0.15"/><circle class="cls-1" cx="205.26" cy="15.34" r="0.04"/><circle class="cls-1" cx="211.78" cy="19.9" r="0.04"/><circle class="cls-1" cx="218.03" cy="24.84" r="0.21"/><circle class="cls-1" cx="223.98" cy="30.13" r="0.32"/><circle class="cls-1" cx="234.9" cy="41.71" r="0.34"/><circle class="cls-1" cx="239.84" cy="47.96" r="0.25"/><circle class="cls-1" cx="244.4" cy="54.48" r="0.11"/><circle class="cls-1" cx="248.58" cy="61.26" r="0.51"/><circle class="cls-1" cx="252.36" cy="68.26" r="0.21"/><circle class="cls-1" cx="255.73" cy="75.48" r="0.21"/><circle class="cls-1" cx="261.17" cy="90.44" r="0.15"/><circle class="cls-1" cx="263.23" cy="98.13" r="0.38"/><circle class="cls-1" cx="264.84" cy="105.92" r="0.57"/><circle class="cls-1" cx="266" cy="113.8" r="0.11"/><circle class="cls-1" cx="266.69" cy="121.73" r="0.15"/><circle class="cls-1" cx="272.55" cy="153.47" r="0.02"/><circle class="cls-1" cx="248.78" cy="212.02" r="0.21"/><circle class="cls-1" cx="180.71" cy="265" r="0.19"/><circle class="cls-1" cx="157.75" cy="271.49" r="0.02"/><circle class="cls-1" cx="149.89" cy="272.8" r="0.11"/></g></g></svg>