<svg xmlns="http://www.w3.org/2000/svg" viewBox="0 0 260 353.45"><defs><style>.cls-1{fill:#757575;}.cls-2{fill:#03a747;}.cls-3{fill:#e0e0e0;}</style></defs><title>tn-disabled</title><g id="Layer_2" data-name="Layer 2"><g id="Layer_1-2" data-name="Layer 1"><path class="cls-1" d="M186.92,64.44a73.47,73.47,0,0,0-57.27-27.59c-40.53,0-73.5,33.4-73.5,73.4H19.3A110.28,110.28,0,0,1,219,45.72L186.92,64.31"/><polygon class="cls-1" points="240 110.25 240 110.25 203 110.25 203 110.25 240 110.25"/><path class="cls-1" d="M248.27,110.23c-8.83-4-79.21-9-118.59-9s-109.49,5-118.32,9S0,116.73,0,125.21V255.06c0,4.49,2.74,14,3.17,15C8.6,282,37,307,75.71,329s48.16,24.47,53.93,24.47,15.25-2.5,54-24.47S251,282,256.43,270c.43-.94,3.57-10.49,3.57-15V125.21C260,116.73,257.1,114.23,248.27,110.23Z"/><path class="cls-1" d="M260,125.21V255.07c0,4.49-3.15,14-3.58,15-5.44,12-34.06,36.85-72.76,58.83-37.79,21.44-47.83,24.26-53.66,24.36v-252c39.47,0,109.48,5,118.27,9S260,116.72,260,125.21Z"/><path class="cls-2" d="M130,353.23h0Z"/><path class="cls-3" d="M26.88,125.19c7.69-3.48,68.77-7.83,103.12-7.84V337.24h0c-5,0-13.29-2.17-47-21.34S24.5,275,19.76,264.53c-.37-.82-2.76-9.15-2.76-13.06V138.26C17,130.85,19.19,128.67,26.88,125.19Z"/><path class="cls-3" d="M243,138.19V251.4c0,3.91-2.4,12.24-2.77,13.06-4.73,10.45-29.51,32.22-63.25,51.38S135,337.17,130,337.18V117.24h.09c34.34,0,95.38,4.38,103.08,7.86S243,130.8,243,138.19Z"/><path class="cls-1" d="M129.58,179.25a23.44,23.44,0,0,0-23.45,23.35c0,8.34,4.87,15.64,10.87,19.77v26.87h25V222.37a22.39,22.39,0,0,0,11-19.77A23.37,23.37,0,0,0,129.58,179.25Z"/></g></g></svg>