<svg xmlns="http://www.w3.org/2000/svg" viewBox="0 0 260 357.35"><defs><style>.cls-1{fill:#263238;}.cls-2{fill:#ff7043;}.cls-3{fill:#f4511e;}.cls-4{fill:#03a747;}.cls-5{fill:#ff8a65;}.cls-6{fill:#212121;}.cls-7{fill:#fff;}.cls-8{fill:#37474f;}.cls-9{fill:#04e762;}</style></defs><title>tn-orange</title><g id="Layer_2" data-name="Layer 2"><g id="Layer_1-2" data-name="Layer 1"><path class="cls-1" d="M240,110.35H203.15c0-40-33-73.5-73.5-73.5s-73.5,33.5-73.5,73.5H19.3a110.35,110.35,0,0,1,220.7,0Z"/><path class="cls-2" d="M248.27,110.34c-8.83-4-79.21-9-118.59-9s-109.49,5-118.32,9S0,116.83,0,125.32V255.17c0,4.49,2.74,14,3.17,15,5.43,12,33.84,37,72.55,58.94s48.16,24.47,53.93,24.47,15.25-2.5,54-24.47,67.4-46.95,72.84-58.94c.43-.94,3.57-10.49,3.57-15V125.32C260,116.83,257.1,114.34,248.27,110.34Z"/><path class="cls-3" d="M260,125.32V255.17c0,4.49-3.15,14-3.58,15C251,282.14,222.36,307,183.66,329c-37.79,21.44-47.83,24.26-53.66,24.36v-252c39.47,0,109.48,5,118.27,9S260,116.83,260,125.32Z"/><path class="cls-4" d="M130,353.34h0Z"/><path class="cls-5" d="M26.88,125.3c7.69-3.48,68.77-7.83,103.12-7.84V337.35h0c-5,0-13.29-2.17-47-21.34S24.5,275.08,19.76,264.63c-.37-.82-2.76-9.15-2.76-13.06V138.36C17,131,19.19,128.78,26.88,125.3Z"/><path class="cls-2" d="M243,138.3V251.51c0,3.91-2.4,12.24-2.77,13.06C235.5,275,210.72,296.79,177,316S135,337.28,130,337.29V117.35h.09c34.34,0,95.38,4.38,103.08,7.86S243,130.9,243,138.3Z"/><path class="cls-6" d="M129.58,179.35a23.44,23.44,0,0,0-23.45,23.35c0,8.34,4.87,15.64,10.87,19.77v26.87h25V222.48a22.39,22.39,0,0,0,11-19.77A23.37,23.37,0,0,0,129.58,179.35Z"/><circle class="cls-7" cx="202.2" cy="307.35" r="50"/><g id="block"><path class="cls-8" d="M202.2,267.84a40.64,40.64,0,1,0,40.64,40.64A40.76,40.76,0,0,0,202.2,267.84Zm-32.51,40.64A32.61,32.61,0,0,1,202.2,276a32,32,0,0,1,19.91,6.91L176.59,328.4A32,32,0,0,1,169.68,308.48ZM202.2,341a32,32,0,0,1-19.91-6.91l45.52-45.52a32,32,0,0,1,6.91,19.91A32.61,32.61,0,0,1,202.2,341Z"/></g><path class="cls-9" d="M17.89,257.67c.38,1.72.82,3.41,1.18,4.69C18.7,261.08,18.27,259.39,17.89,257.67Z"/><path class="cls-9" d="M19.07,262.36c.11.39.21.73.3,1C19.28,263.09,19.17,262.75,19.07,262.36Z"/><path class="cls-9" d="M34.68,282c-7.78-7-13-13.16-14.92-17.4,0-.08-.09-.22-.15-.42a4.46,4.46,0,0,0,.16.42C21.69,268.81,26.91,274.92,34.68,282Z"/><path class="cls-9" d="M82.94,316c28.93,16.43,39.15,20.37,44.64,21.17-5.49-.78-15.66-4.7-44.66-21.17-19-10.77-35.09-22.37-46.39-32.33C47.84,293.57,64,305.17,82.94,316Z"/></g></g></svg>