<svg xmlns="http://www.w3.org/2000/svg" viewBox="0 0 23 24"><defs><style>.cls-1{opacity:0.54;}.cls-2{fill:none;}</style></defs><title>user</title><g id="Layer_2" data-name="Layer 2"><g id="Layer_1-2" data-name="Layer 1"><g class="cls-1"><path d="M9.69,0a9.69,9.69,0,1,0,9.69,9.69A9.69,9.69,0,0,0,9.69,0Zm0,2.91A2.91,2.91,0,1,1,6.78,5.81,2.9,2.9,0,0,1,9.69,2.91Zm0,13.76a7,7,0,0,1-5.81-3.12c0-1.93,3.88-3,5.81-3s5.78,1.06,5.81,3A7,7,0,0,1,9.69,16.67Z" transform="translate(1.77 2.27)"/><path class="cls-2" d="M-1.77-2.27h23v24h-23Z" transform="translate(1.77 2.27)"/></g></g></g></svg>